<mxfile host="app.diagrams.net" modified="2023-07-25T11:00:32.768Z" agent="Mozilla/5.0 (Windows NT 10.0; Win64; x64) AppleWebKit/537.36 (KHTML, like Gecko) Chrome/114.0.0.0 Safari/537.36" etag="5s4Ix-9IZXH-ZkbC4Byq" version="21.6.5" type="device">
  <diagram name="Página-1" id="sxs3a1pIXyt-k1uU1TzC">
    <mxGraphModel dx="2501" dy="796" grid="1" gridSize="10" guides="1" tooltips="1" connect="1" arrows="1" fold="1" page="1" pageScale="1" pageWidth="827" pageHeight="1169" math="0" shadow="0">
      <root>
        <mxCell id="0" />
        <mxCell id="1" parent="0" />
        <mxCell id="52nWU0ZpBuNbyzclTSnD-1" value="Faz" style="rhombus;whiteSpace=wrap;html=1;" parent="1" vertex="1">
          <mxGeometry x="360" y="370" width="80" height="80" as="geometry" />
        </mxCell>
        <mxCell id="52nWU0ZpBuNbyzclTSnD-2" value="Cliente" style="rounded=0;whiteSpace=wrap;html=1;" parent="1" vertex="1">
          <mxGeometry x="-30" y="380" width="120" height="60" as="geometry" />
        </mxCell>
        <mxCell id="52nWU0ZpBuNbyzclTSnD-3" value="Pedido" style="rounded=0;whiteSpace=wrap;html=1;" parent="1" vertex="1">
          <mxGeometry x="680" y="380" width="120" height="60" as="geometry" />
        </mxCell>
        <mxCell id="52nWU0ZpBuNbyzclTSnD-4" value="" style="endArrow=none;html=1;rounded=0;entryX=1;entryY=0.5;entryDx=0;entryDy=0;" parent="1" target="52nWU0ZpBuNbyzclTSnD-1" edge="1">
          <mxGeometry width="50" height="50" relative="1" as="geometry">
            <mxPoint x="680" y="410" as="sourcePoint" />
            <mxPoint x="440" y="380" as="targetPoint" />
          </mxGeometry>
        </mxCell>
        <mxCell id="52nWU0ZpBuNbyzclTSnD-5" value="" style="endArrow=none;html=1;rounded=0;exitX=0;exitY=0.5;exitDx=0;exitDy=0;" parent="1" source="52nWU0ZpBuNbyzclTSnD-1" target="52nWU0ZpBuNbyzclTSnD-2" edge="1">
          <mxGeometry width="50" height="50" relative="1" as="geometry">
            <mxPoint x="390" y="430" as="sourcePoint" />
            <mxPoint x="440" y="380" as="targetPoint" />
          </mxGeometry>
        </mxCell>
        <mxCell id="52nWU0ZpBuNbyzclTSnD-6" value="ID" style="ellipse;whiteSpace=wrap;html=1;" parent="1" vertex="1">
          <mxGeometry x="-200" y="310" width="80" height="40" as="geometry" />
        </mxCell>
        <mxCell id="52nWU0ZpBuNbyzclTSnD-7" value="Endereço" style="ellipse;whiteSpace=wrap;html=1;" parent="1" vertex="1">
          <mxGeometry x="-200" y="400" width="80" height="40" as="geometry" />
        </mxCell>
        <mxCell id="52nWU0ZpBuNbyzclTSnD-8" value="Telefone" style="ellipse;whiteSpace=wrap;html=1;" parent="1" vertex="1">
          <mxGeometry x="-200" y="470" width="80" height="40" as="geometry" />
        </mxCell>
        <mxCell id="52nWU0ZpBuNbyzclTSnD-9" value="Nome" style="ellipse;whiteSpace=wrap;html=1;" parent="1" vertex="1">
          <mxGeometry x="-130" y="230" width="80" height="40" as="geometry" />
        </mxCell>
        <mxCell id="52nWU0ZpBuNbyzclTSnD-10" value="" style="endArrow=none;html=1;rounded=0;entryX=0;entryY=0;entryDx=0;entryDy=0;exitX=0.5;exitY=1;exitDx=0;exitDy=0;" parent="1" source="52nWU0ZpBuNbyzclTSnD-9" target="52nWU0ZpBuNbyzclTSnD-2" edge="1">
          <mxGeometry width="50" height="50" relative="1" as="geometry">
            <mxPoint x="390" y="530" as="sourcePoint" />
            <mxPoint x="440" y="480" as="targetPoint" />
          </mxGeometry>
        </mxCell>
        <mxCell id="52nWU0ZpBuNbyzclTSnD-11" value="" style="endArrow=none;html=1;rounded=0;entryX=1;entryY=0.5;entryDx=0;entryDy=0;exitX=0;exitY=0.25;exitDx=0;exitDy=0;" parent="1" source="52nWU0ZpBuNbyzclTSnD-2" target="52nWU0ZpBuNbyzclTSnD-6" edge="1">
          <mxGeometry width="50" height="50" relative="1" as="geometry">
            <mxPoint x="-30" y="380" as="sourcePoint" />
            <mxPoint x="440" y="480" as="targetPoint" />
          </mxGeometry>
        </mxCell>
        <mxCell id="52nWU0ZpBuNbyzclTSnD-12" value="" style="endArrow=none;html=1;rounded=0;entryX=1;entryY=0.5;entryDx=0;entryDy=0;exitX=0;exitY=0.5;exitDx=0;exitDy=0;" parent="1" source="52nWU0ZpBuNbyzclTSnD-2" target="52nWU0ZpBuNbyzclTSnD-7" edge="1">
          <mxGeometry width="50" height="50" relative="1" as="geometry">
            <mxPoint x="390" y="530" as="sourcePoint" />
            <mxPoint x="440" y="480" as="targetPoint" />
          </mxGeometry>
        </mxCell>
        <mxCell id="52nWU0ZpBuNbyzclTSnD-13" value="" style="endArrow=none;html=1;rounded=0;entryX=0.988;entryY=0.3;entryDx=0;entryDy=0;exitX=0;exitY=1;exitDx=0;exitDy=0;entryPerimeter=0;" parent="1" source="52nWU0ZpBuNbyzclTSnD-2" target="52nWU0ZpBuNbyzclTSnD-8" edge="1">
          <mxGeometry width="50" height="50" relative="1" as="geometry">
            <mxPoint x="390" y="530" as="sourcePoint" />
            <mxPoint x="440" y="480" as="targetPoint" />
          </mxGeometry>
        </mxCell>
        <mxCell id="52nWU0ZpBuNbyzclTSnD-14" value="NomeP" style="ellipse;whiteSpace=wrap;html=1;" parent="1" vertex="1">
          <mxGeometry x="860" y="545" width="70" height="40" as="geometry" />
        </mxCell>
        <mxCell id="52nWU0ZpBuNbyzclTSnD-15" value="HoraP" style="ellipse;whiteSpace=wrap;html=1;" parent="1" vertex="1">
          <mxGeometry x="770" y="550" width="70" height="40" as="geometry" />
        </mxCell>
        <mxCell id="52nWU0ZpBuNbyzclTSnD-16" value="ID" style="ellipse;whiteSpace=wrap;html=1;" parent="1" vertex="1">
          <mxGeometry x="610" y="550" width="70" height="40" as="geometry" />
        </mxCell>
        <mxCell id="52nWU0ZpBuNbyzclTSnD-18" value="" style="endArrow=none;html=1;rounded=0;entryX=0.5;entryY=0;entryDx=0;entryDy=0;exitX=0.5;exitY=1;exitDx=0;exitDy=0;" parent="1" source="52nWU0ZpBuNbyzclTSnD-3" target="52nWU0ZpBuNbyzclTSnD-14" edge="1">
          <mxGeometry width="50" height="50" relative="1" as="geometry">
            <mxPoint x="800" y="440" as="sourcePoint" />
            <mxPoint x="610" y="490" as="targetPoint" />
          </mxGeometry>
        </mxCell>
        <mxCell id="52nWU0ZpBuNbyzclTSnD-19" value="" style="endArrow=none;html=1;rounded=0;entryX=0.5;entryY=0;entryDx=0;entryDy=0;exitX=0.5;exitY=1;exitDx=0;exitDy=0;" parent="1" source="52nWU0ZpBuNbyzclTSnD-3" target="52nWU0ZpBuNbyzclTSnD-16" edge="1">
          <mxGeometry width="50" height="50" relative="1" as="geometry">
            <mxPoint x="560" y="540" as="sourcePoint" />
            <mxPoint x="610" y="490" as="targetPoint" />
          </mxGeometry>
        </mxCell>
        <mxCell id="52nWU0ZpBuNbyzclTSnD-20" value="" style="endArrow=none;html=1;rounded=0;entryX=0.5;entryY=0;entryDx=0;entryDy=0;exitX=0.5;exitY=1;exitDx=0;exitDy=0;" parent="1" source="52nWU0ZpBuNbyzclTSnD-3" target="52nWU0ZpBuNbyzclTSnD-15" edge="1">
          <mxGeometry width="50" height="50" relative="1" as="geometry">
            <mxPoint x="560" y="540" as="sourcePoint" />
            <mxPoint x="610" y="490" as="targetPoint" />
          </mxGeometry>
        </mxCell>
        <mxCell id="52nWU0ZpBuNbyzclTSnD-22" value="" style="endArrow=none;html=1;rounded=0;entryX=0.5;entryY=1;entryDx=0;entryDy=0;exitX=0.5;exitY=0;exitDx=0;exitDy=0;" parent="1" target="52nWU0ZpBuNbyzclTSnD-3" edge="1" source="52nWU0ZpBuNbyzclTSnD-23">
          <mxGeometry width="50" height="50" relative="1" as="geometry">
            <mxPoint x="920" y="440" as="sourcePoint" />
            <mxPoint x="570" y="500" as="targetPoint" />
          </mxGeometry>
        </mxCell>
        <mxCell id="52nWU0ZpBuNbyzclTSnD-23" value="DataP" style="ellipse;whiteSpace=wrap;html=1;" parent="1" vertex="1">
          <mxGeometry x="690" y="545" width="70" height="40" as="geometry" />
        </mxCell>
        <mxCell id="52nWU0ZpBuNbyzclTSnD-24" value="" style="endArrow=none;html=1;rounded=0;entryX=0.5;entryY=1;entryDx=0;entryDy=0;exitX=0.5;exitY=0;exitDx=0;exitDy=0;" parent="1" source="52nWU0ZpBuNbyzclTSnD-25" target="52nWU0ZpBuNbyzclTSnD-3" edge="1">
          <mxGeometry width="50" height="50" relative="1" as="geometry">
            <mxPoint x="880" y="340" as="sourcePoint" />
            <mxPoint x="570" y="500" as="targetPoint" />
          </mxGeometry>
        </mxCell>
        <mxCell id="52nWU0ZpBuNbyzclTSnD-25" value="Descricao" style="ellipse;whiteSpace=wrap;html=1;" parent="1" vertex="1">
          <mxGeometry x="530" y="545" width="70" height="40" as="geometry" />
        </mxCell>
        <mxCell id="52nWU0ZpBuNbyzclTSnD-26" value="cardapio" style="rounded=0;whiteSpace=wrap;html=1;" parent="1" vertex="1">
          <mxGeometry x="-30" y="790" width="120" height="60" as="geometry" />
        </mxCell>
        <mxCell id="52nWU0ZpBuNbyzclTSnD-27" value="" style="endArrow=none;html=1;rounded=0;" parent="1" edge="1">
          <mxGeometry width="50" height="50" relative="1" as="geometry">
            <mxPoint x="90" y="850" as="sourcePoint" />
            <mxPoint x="140" y="900" as="targetPoint" />
          </mxGeometry>
        </mxCell>
        <mxCell id="52nWU0ZpBuNbyzclTSnD-28" value="descricao" style="ellipse;whiteSpace=wrap;html=1;" parent="1" vertex="1">
          <mxGeometry x="100" y="890" width="70" height="30" as="geometry" />
        </mxCell>
        <mxCell id="52nWU0ZpBuNbyzclTSnD-29" value="" style="endArrow=none;html=1;rounded=0;" parent="1" source="52nWU0ZpBuNbyzclTSnD-31" edge="1">
          <mxGeometry width="50" height="50" relative="1" as="geometry">
            <mxPoint x="-80" y="900" as="sourcePoint" />
            <mxPoint x="-30" y="850" as="targetPoint" />
          </mxGeometry>
        </mxCell>
        <mxCell id="52nWU0ZpBuNbyzclTSnD-32" value="" style="endArrow=none;html=1;rounded=0;" parent="1" target="52nWU0ZpBuNbyzclTSnD-31" edge="1">
          <mxGeometry width="50" height="50" relative="1" as="geometry">
            <mxPoint x="-80" y="900" as="sourcePoint" />
            <mxPoint x="-30" y="850" as="targetPoint" />
          </mxGeometry>
        </mxCell>
        <mxCell id="52nWU0ZpBuNbyzclTSnD-31" value="IDproduto" style="ellipse;whiteSpace=wrap;html=1;" parent="1" vertex="1">
          <mxGeometry x="-110" y="890" width="70" height="30" as="geometry" />
        </mxCell>
        <mxCell id="52nWU0ZpBuNbyzclTSnD-33" value="" style="endArrow=none;html=1;rounded=0;entryX=0.5;entryY=1;entryDx=0;entryDy=0;" parent="1" target="52nWU0ZpBuNbyzclTSnD-26" edge="1">
          <mxGeometry width="50" height="50" relative="1" as="geometry">
            <mxPoint x="30" y="910" as="sourcePoint" />
            <mxPoint x="200" y="650" as="targetPoint" />
          </mxGeometry>
        </mxCell>
        <mxCell id="52nWU0ZpBuNbyzclTSnD-34" value="preco" style="ellipse;whiteSpace=wrap;html=1;" parent="1" vertex="1">
          <mxGeometry x="-5" y="890" width="70" height="30" as="geometry" />
        </mxCell>
        <mxCell id="ccDYQB7dz6ejceNWJ7Y_-1" value="" style="endArrow=none;html=1;rounded=0;entryX=0.5;entryY=1;entryDx=0;entryDy=0;exitX=0.5;exitY=0;exitDx=0;exitDy=0;" edge="1" parent="1" source="ccDYQB7dz6ejceNWJ7Y_-2" target="52nWU0ZpBuNbyzclTSnD-2">
          <mxGeometry width="50" height="50" relative="1" as="geometry">
            <mxPoint x="500" y="620" as="sourcePoint" />
            <mxPoint x="550" y="570" as="targetPoint" />
          </mxGeometry>
        </mxCell>
        <mxCell id="ccDYQB7dz6ejceNWJ7Y_-3" value="" style="endArrow=none;html=1;rounded=0;entryX=0.5;entryY=1;entryDx=0;entryDy=0;exitX=0.5;exitY=0;exitDx=0;exitDy=0;" edge="1" parent="1" source="52nWU0ZpBuNbyzclTSnD-26" target="ccDYQB7dz6ejceNWJ7Y_-2">
          <mxGeometry width="50" height="50" relative="1" as="geometry">
            <mxPoint x="30" y="790" as="sourcePoint" />
            <mxPoint x="30" y="440" as="targetPoint" />
          </mxGeometry>
        </mxCell>
        <mxCell id="ccDYQB7dz6ejceNWJ7Y_-2" value="consulta" style="rhombus;whiteSpace=wrap;html=1;" vertex="1" parent="1">
          <mxGeometry x="-10" y="580" width="80" height="80" as="geometry" />
        </mxCell>
        <mxCell id="ccDYQB7dz6ejceNWJ7Y_-4" value="" style="endArrow=none;html=1;rounded=0;entryX=1;entryY=0.5;entryDx=0;entryDy=0;" edge="1" parent="1" target="52nWU0ZpBuNbyzclTSnD-3">
          <mxGeometry width="50" height="50" relative="1" as="geometry">
            <mxPoint x="970" y="410" as="sourcePoint" />
            <mxPoint x="600" y="570" as="targetPoint" />
          </mxGeometry>
        </mxCell>
        <mxCell id="ccDYQB7dz6ejceNWJ7Y_-5" value="tem" style="rhombus;whiteSpace=wrap;html=1;" vertex="1" parent="1">
          <mxGeometry x="960" y="370" width="80" height="80" as="geometry" />
        </mxCell>
        <mxCell id="ccDYQB7dz6ejceNWJ7Y_-6" value="" style="endArrow=none;html=1;rounded=0;entryX=1;entryY=0.5;entryDx=0;entryDy=0;" edge="1" parent="1" target="ccDYQB7dz6ejceNWJ7Y_-5">
          <mxGeometry width="50" height="50" relative="1" as="geometry">
            <mxPoint x="1170" y="410" as="sourcePoint" />
            <mxPoint x="600" y="570" as="targetPoint" />
          </mxGeometry>
        </mxCell>
        <mxCell id="ccDYQB7dz6ejceNWJ7Y_-7" value="item" style="rounded=0;whiteSpace=wrap;html=1;" vertex="1" parent="1">
          <mxGeometry x="1150" y="380" width="120" height="60" as="geometry" />
        </mxCell>
        <mxCell id="ccDYQB7dz6ejceNWJ7Y_-8" value="" style="endArrow=none;html=1;rounded=0;entryX=0.5;entryY=1;entryDx=0;entryDy=0;" edge="1" parent="1" target="ccDYQB7dz6ejceNWJ7Y_-7">
          <mxGeometry width="50" height="50" relative="1" as="geometry">
            <mxPoint x="1130" y="490" as="sourcePoint" />
            <mxPoint x="600" y="570" as="targetPoint" />
          </mxGeometry>
        </mxCell>
        <mxCell id="ccDYQB7dz6ejceNWJ7Y_-9" value="" style="endArrow=none;html=1;rounded=0;entryX=0.5;entryY=1;entryDx=0;entryDy=0;exitX=0.5;exitY=0;exitDx=0;exitDy=0;" edge="1" parent="1" source="ccDYQB7dz6ejceNWJ7Y_-12" target="ccDYQB7dz6ejceNWJ7Y_-7">
          <mxGeometry width="50" height="50" relative="1" as="geometry">
            <mxPoint x="1210" y="500" as="sourcePoint" />
            <mxPoint x="600" y="570" as="targetPoint" />
          </mxGeometry>
        </mxCell>
        <mxCell id="ccDYQB7dz6ejceNWJ7Y_-11" value="IDitem" style="ellipse;whiteSpace=wrap;html=1;" vertex="1" parent="1">
          <mxGeometry x="1090" y="480" width="80" height="40" as="geometry" />
        </mxCell>
        <mxCell id="ccDYQB7dz6ejceNWJ7Y_-12" value="descricao" style="ellipse;whiteSpace=wrap;html=1;" vertex="1" parent="1">
          <mxGeometry x="1240" y="480" width="70" height="40" as="geometry" />
        </mxCell>
      </root>
    </mxGraphModel>
  </diagram>
</mxfile>
